<svg fill="none" height="440" viewBox="0 0 2560 440" width="2560" xmlns="http://www.w3.org/2000/svg" xmlns:xlink="http://www.w3.org/1999/xlink"><linearGradient id="a" gradientUnits="userSpaceOnUse" x1="1777" x2="1777" y1="440" y2="99.3436"><stop offset="0" stop-color="#6ef084"/><stop offset="1" stop-color="#17a4a5"/></linearGradient><linearGradient id="b" gradientUnits="userSpaceOnUse" x1="1927" x2="1927" y1="-138.657" y2="386.438"><stop offset="0" stop-color="#b80006"/><stop offset=".645833" stop-color="#e3363c"/><stop offset="1" stop-color="#fe969a"/></linearGradient><mask id="c" height="440" maskUnits="userSpaceOnUse" width="2560" x="0" y="0"><path d="m0 0h2560v279.817s-534 160.682-1280 160.182c-746 0-1280-160.182-1280-160.182z" fill="url(#b)"/></mask><path d="m0 0h2560v279.817s-534 160.682-1280 160.182c-746 0-1280-160.182-1280-160.182z" fill="url(#a)"/><g mask="url(#c)"><g fill="#fff" opacity=".15"><path d="m741.785 449.391h-19.587l-7.307 41.609h-18.572l7.307-41.609h-23.037v-17.456h26.081l5.075-28.822h-23.545v-17.659h26.691l7.408-42.218h18.471l-7.409 42.218h19.689l7.408-42.218h18.572l-7.408 42.218h22.225v17.659h-25.371l-5.075 28.822h22.733v17.456h-25.777l-7.307 41.609h-18.572zm-16.543-17.456h19.587l5.075-28.822h-19.689z"/><path d="m769.976 287.379c0 3.467-.74 6.174-2.22 8.121-1.48 1.933-3.547 2.9-6.2 2.9-2.347 0-4.22-.9-5.62-2.7l-.26 2.3h-5.201v-30.722h5.781v11.021c1.333-1.56 3.086-2.34 5.26-2.34 2.64 0 4.707.973 6.2 2.92 1.507 1.933 2.26 4.66 2.26 8.18zm-5.78-.42c0-2.186-.347-3.78-1.04-4.78-.693-1.013-1.727-1.52-3.1-1.52-1.84 0-3.107.753-3.8 2.26v8.541c.706 1.52 1.986 2.28 3.84 2.28 1.867 0 3.093-.92 3.68-2.76.28-.88.42-2.22.42-4.021z"/><path d="m1797.86 142.299c-.23 3.134-1.39 5.601-3.48 7.401-2.08 1.8-4.83 2.7-8.24 2.7-3.74 0-6.68-1.253-8.82-3.76-2.14-2.52-3.2-5.974-3.2-10.361v-1.78c0-2.8.49-5.267 1.48-7.4.98-2.134 2.39-3.767 4.22-4.9 1.84-1.147 3.97-1.721 6.4-1.721 3.36 0 6.06.9 8.12 2.701 2.05 1.8 3.24 4.326 3.56 7.58h-6c-.15-1.88-.68-3.24-1.58-4.08-.9-.854-2.26-1.28-4.1-1.28-2 0-3.5.72-4.5 2.16-.99 1.427-1.5 3.647-1.52 6.66v2.2c0 3.147.47 5.447 1.42 6.901.96 1.453 2.46 2.18 4.52 2.18 1.85 0 3.23-.42 4.14-1.26.92-.854 1.44-2.167 1.58-3.941z"/><path d="m740.484 165.388c-.2 4.653-1.354 8.351-3.463 11.095-2.09 2.726-4.906 4.089-8.45 4.089-1.563 0-2.917-.336-4.062-1.008-1.127-.673-1.981-1.636-2.563-2.89-1.817 2.545-4.189 3.817-7.115 3.817-2.653 0-4.707-1.118-6.16-3.353-1.454-2.236-1.999-5.189-1.636-8.86.327-2.999 1.081-5.661 2.263-7.987 1.199-2.345 2.707-4.144 4.525-5.398 1.817-1.254 3.78-1.881 5.888-1.881 2.599 0 4.816.6 6.652 1.799l1.717 1.173-1.39 15.756c-.182 1.436-.028 2.535.463 3.299.509.763 1.309 1.145 2.399 1.145 1.672 0 3.071-.973 4.198-2.917 1.127-1.963 1.745-4.526 1.854-7.688.309-6.342-.972-11.213-3.844-14.611-2.853-3.417-7.088-5.125-12.703-5.125-3.508 0-6.634.89-9.378 2.671s-4.907 4.316-6.488 7.606c-1.581 3.271-2.471 7.024-2.671 11.258-.291 6.434.999 11.404 3.871 14.912 2.871 3.526 7.169 5.288 12.894 5.288 1.508 0 3.089-.172 4.743-.518 1.654-.327 3.081-.772 4.28-1.335l1.036 4.198c-1.109.727-2.608 1.308-4.498 1.744-1.872.455-3.762.682-5.67.682-4.798 0-8.887-.972-12.267-2.917-3.381-1.926-5.907-4.78-7.579-8.56-1.654-3.762-2.371-8.26-2.153-13.494.218-5.015 1.363-9.513 3.435-13.493 2.071-3.981 4.888-7.052 8.45-9.215 3.58-2.18 7.615-3.271 12.104-3.271 4.561 0 8.487.982 11.776 2.944 3.29 1.945 5.752 4.735 7.388 8.369 1.636 3.635 2.353 7.86 2.154 12.676zm-27.397 2.89c-.2 2.399.009 4.225.627 5.479.618 1.236 1.617 1.854 2.998 1.854.891 0 1.736-.391 2.536-1.172.799-.782 1.463-1.908 1.99-3.38l1.145-12.895c-.709-.236-1.436-.354-2.181-.354-2.09 0-3.717.891-4.88 2.672-1.145 1.781-1.89 4.379-2.235 7.796z"/><path d="m1887.37 427h-75.24v-14.927l35.51-37.846c4.88-5.327 8.47-9.976 10.78-13.947 2.37-3.97 3.55-7.74 3.55-11.308 0-4.876-1.23-8.695-3.7-11.46-2.46-2.814-5.98-4.221-10.55-4.221-4.93 0-8.82 1.708-11.69 5.126-2.81 3.367-4.22 7.815-4.22 13.344h-21.86c0-6.685 1.58-12.791 4.75-18.32 3.21-5.528 7.74-9.851 13.57-12.967 5.83-3.166 12.44-4.749 19.83-4.749 11.3 0 20.07 2.714 26.31 8.142 6.28 5.428 9.42 13.093 9.42 22.994 0 5.428-1.41 10.956-4.22 16.585-2.82 5.63-7.64 12.188-14.48 19.677l-24.95 26.311h47.19z"/><path d="m1750.94 361h-16.31v-62.862l-19.46 6.038v-13.26l34.02-12.189h1.75z"/><path d="m1926.83 231.383h-39.66l-7.54 22.617h-24.05l40.87-109.767h20.95l41.09 109.767h-24.05zm-33.55-18.32h27.44l-13.8-41.087z"/><path d="m646.084 243.251h6.252c2.977 0 5.182-.744 6.617-2.233 1.434-1.488 2.151-3.464 2.151-5.926 0-2.382-.717-4.236-2.151-5.562-1.408-1.326-3.356-1.989-5.846-1.989-2.246 0-4.127.623-5.643 1.867-1.515 1.218-2.273 2.815-2.273 4.791h-11.732c0-3.086.826-5.846 2.476-8.282 1.678-2.462 4.006-4.384 6.983-5.764 3.004-1.38 6.305-2.07 9.905-2.07 6.251 0 11.15 1.502 14.695 4.506 3.545 2.976 5.318 7.09 5.318 12.34 0 2.707-.826 5.196-2.476 7.47-1.651 2.273-3.816 4.018-6.496 5.236 3.329 1.191 5.805 2.977 7.429 5.359 1.651 2.381 2.477 5.196 2.477 8.443 0 5.251-1.922 9.459-5.765 12.625-3.816 3.167-8.877 4.75-15.182 4.75-5.9 0-10.731-1.556-14.492-4.668-3.735-3.113-5.603-7.226-5.603-12.341h11.732c0 2.219.826 4.032 2.477 5.439 1.677 1.408 3.734 2.111 6.17 2.111 2.787 0 4.966-.73 6.536-2.192 1.596-1.488 2.395-3.45 2.395-5.886 0-5.9-3.248-8.85-9.743-8.85h-6.211z"/><path d="m2203.03 307.81h17.82v25.167h-17.82v34.023h-31.21v-34.023h-64.49l-1.4-19.658 65.56-103.582h31.54zm-65.99 0h34.78v-55.517l-2.06 3.564z"/><path d="m326.327 173v-201.9708h62.145c17.756 0 33.616 4.0228 47.58 12.0683 14.057 7.9531 25.015 19.32782 32.876 34.1242 7.86 14.7039 11.791 31.4424 11.791 50.2153v9.294c0 18.7729-3.884 35.465-11.653 50.077-7.675 14.611-18.541 25.939-32.598 33.985-14.056 8.046-29.916 12.115-47.58 12.207zm41.615-168.26274v134.83174h20.114c16.276 0 28.714-5.317 37.315-15.952 8.6-10.635 12.993-25.8474 13.178-45.6376v-10.6811c0-20.53-4.254-36.0662-12.762-46.6087-8.508-10.6349-20.946-15.95234-37.315-15.95234z"/><path d="m176.682 215.115h-10.773l-4.019 22.885h-10.215l4.019-22.885h-12.67v-9.601h14.345l2.791-15.852h-12.95v-9.712h14.68l4.075-23.22h10.158l-4.074 23.22h10.828l4.075-23.22h10.215l-4.075 23.22h12.224v9.712h-13.954l-2.791 15.852h12.503v9.601h-14.178l-4.019 22.885h-10.214zm-9.099-9.601h10.773l2.791-15.852h-10.829z"/><path d="m2336.61 91.0347 4.68-41.3049h45.55v13.452h-32.32l-2.01 17.4709c3.84-2.0466 7.91-3.07 12.23-3.07 7.74 0 13.8 2.4002 18.19 7.2005s6.59 11.517 6.59 20.1498c0 5.247-1.12 9.954-3.35 14.122-2.19 4.131-5.36 7.349-9.49 9.656-4.13 2.27-9 3.405-14.62 3.405-4.91 0-9.47-.986-13.68-2.958-4.2-2.009-7.53-4.819-9.99-8.428-2.42-3.61-3.7-7.722-3.85-12.336h15.96c.34 3.386 1.51 6.028 3.52 7.926 2.05 1.861 4.71 2.791 7.98 2.791 3.65 0 6.46-1.303 8.43-3.907 1.97-2.642 2.96-6.364 2.96-11.164 0-4.6141-1.14-8.1492-3.41-10.6051-2.27-2.456-5.48-3.684-9.65-3.684-3.83 0-6.94 1.0047-9.32 3.0142l-1.57 1.4512z"/></g></g></svg>